<svg id="Layer_1" data-name="Layer 1" xmlns="http://www.w3.org/2000/svg" viewBox="0 0 220 220"><defs><style>.cls-1{fill:#06f;}</style></defs><title>0</title><path class="cls-1" d="M176.07,10H43.92A34,34,0,0,0,10,43.93V176.07A34,34,0,0,0,43.92,210H176.07A34,34,0,0,0,210,176.07V43.93A34,34,0,0,0,176.07,10Zm5.36,166.07a5.36,5.36,0,0,1-5.36,5.36H43.92a5.36,5.36,0,0,1-5.36-5.36V43.93a5.37,5.37,0,0,1,5.36-5.36H176.07a5.37,5.37,0,0,1,5.36,5.36Z"/><path class="cls-1" d="M144.37,68.53h0l-55,55L75.62,109.79A13.18,13.18,0,0,0,57,128.42l23.08,23.07a13.17,13.17,0,0,0,18.62,0L163,87.15a13.18,13.18,0,0,0-18.62-18.62Z"/></svg>